# This file uses meters as units for non-parametric coordinates.

v -5.759399 -48.240055 1.597748
v 5.759399 -48.240055 1.597748
v -4.437988 21.473152 3.512009
v 4.437988 21.473152 3.512009
v -4.437988 21.473152 -5.363953
v 4.437988 21.473152 -5.363953
v -5.759399 -48.240055 -9.920990
v 5.759399 -48.240055 -9.920990
v -5.732056 23.948326 4.806015
v 5.732056 23.948326 4.806015
v 5.732056 23.948326 -6.657959
v -5.732056 23.948326 -6.657959
v -4.350952 44.731758 5.197815
v 4.350952 44.731758 5.197815
v 3.203613 44.731758 -7.049759
v -3.203613 44.731758 -7.049759
v -4.350952 33.298378 5.197815
v 4.350952 33.298378 5.197815
v -3.190796 30.747238 19.932892
v 3.190796 30.747238 19.932892
v 3.190796 44.040001 21.235428
v -3.190796 44.040001 21.235428
v -1.903564 5.496742 20.222488
v 1.903564 5.496742 20.222488
v 1.903564 48.231041 31.342529
v -1.903564 48.231041 31.342529
v 0.000000 -0.284828 23.973434
v 0.000000 51.102058 36.031128
v -3.203613 33.298363 -7.049759
v 3.203613 33.298363 -7.049759
v -3.203613 38.245201 -14.289063
v 3.203613 38.245201 -14.289063
v -2.065186 44.575920 -20.339905
v 2.065186 44.575920 -20.339905
v 0.000000 37.048866 -25.028015
v 1.903564 26.703850 32.830261
v 0.000000 24.966606 37.912628
v -1.903564 26.703850 32.830261
v 3.622681 33.580711 11.975800
v 3.622681 43.520378 11.975800
v -3.622681 43.520378 11.975800
v -3.622681 33.580711 11.975800
v -3.373047 -0.946785 -2.796158
v 3.373047 -0.946785 -2.796158
v 3.373047 -0.946785 3.949936
v -3.373047 -0.946785 3.949936
v 3.644897 -32.272892 -2.284744
v 3.644897 -32.272892 -9.574539
v -3.644897 -32.272892 -9.574539
v -3.644897 -32.272892 -2.284744
v -3.627930 -51.693878 -7.558441
v 3.627930 -51.693878 -7.558441
v 3.627930 -51.693878 -0.302521
v -3.627930 -51.693878 -0.302521
v -4.100830 14.374641 -4.550949
v 4.100830 14.374641 -4.550949
v 4.100830 14.374641 3.650665
v -4.100830 14.374641 3.650665
v -3.498291 -15.391281 -5.921677
v 3.498413 -15.391281 -5.921677
v 3.498413 -15.391281 1.075119
v -3.498291 -15.391281 1.075119
vt 0.065679 0.103130
vt 0.065679 0.103130
vt 0.065679 0.103130
vt 0.065679 0.103130
vt 0.065679 0.103130
vt 0.065679 0.103130
vt 0.065679 0.103130
vt 0.065679 0.103130
vt 0.065679 0.103130
vt 0.065679 0.103130
vt 0.065679 0.103130
vt 0.065679 0.103130
vt 0.065679 0.103130
vt 0.065679 0.103130
vt 0.182568 0.151029
vt 0.182568 0.151029
vt 0.182568 0.151029
vt 0.182568 0.151029
vt 0.182568 0.151029
vt 0.182568 0.151029
vt 0.182568 0.151029
vt 0.182568 0.151029
vt 0.182568 0.151029
vt 0.182568 0.151029
vt 0.182568 0.151029
vt 0.182568 0.151029
vt 0.182568 0.151029
vt 0.182568 0.151029
vt 0.182568 0.151029
vt 0.182568 0.151029
vt 0.182568 0.151029
vt 0.182311 0.191267
vt 0.182311 0.191267
vt 0.182311 0.191267
vt 0.182311 0.191267
vt 0.182311 0.191267
vt 0.182311 0.191267
vt 0.182568 0.151029
vt 0.182311 0.191267
vt 0.182311 0.191267
vt 0.182311 0.191267
vt 0.182311 0.191267
vt 0.182311 0.191267
vt 0.182568 0.151029
vt 0.182311 0.191267
vt 0.182568 0.151029
vt 0.182311 0.191267
vt 0.182568 0.151029
vt 0.182311 0.191267
vt 0.182568 0.151029
vt 0.182568 0.151029
vt 0.182568 0.151029
vt 0.182568 0.151029
vt 0.182568 0.151029
vt 0.182568 0.151029
vt 0.182311 0.191267
vt 0.182568 0.151029
vt 0.182311 0.191267
vt 0.182311 0.191267
vt 0.182568 0.151029
vt 0.182311 0.191267
vt 0.182568 0.151029
vt 0.182568 0.151029
vt 0.182568 0.151029
vt 0.182568 0.151029
vt 0.088532 0.700224
vt 0.088532 0.700224
vt 0.088532 0.700224
vt 0.088532 0.700224
vt 0.088532 0.700224
vt 0.088532 0.700224
vt 0.065679 0.103130
vt 0.065679 0.103130
vt 0.065679 0.103130
vt 0.065679 0.103130
vt 0.065679 0.103130
vt 0.065679 0.103130
vt 0.065679 0.103130
vt 0.065679 0.103130
vt 0.065679 0.103130
vt 0.065679 0.103130
vt 0.182568 0.151029
vt 0.182568 0.151029
vt 0.065679 0.103130
vt 0.065679 0.103130
vt 0.065679 0.103130
vt 0.065679 0.103130
vt 0.065679 0.103130
vt 0.065679 0.103130
vt 0.065679 0.103130
vt 0.065679 0.103130
vt 0.065679 0.103130
vt 0.065679 0.103130
vt 0.065679 0.103130
vt 0.065679 0.103130
vt 0.088532 0.700224
vt 0.088532 0.700224
vt 0.088532 0.700224
vt 0.088532 0.700224
vt 0.088532 0.700224
vt 0.088532 0.700224
vt 0.182568 0.151029
vt 0.182568 0.151029
vt 0.182568 0.151029
vt 0.182568 0.151029
vt 0.182568 0.151029
vt 0.182568 0.151029
vn 0.000000 -0.195197 0.980764
vn 0.000000 -0.195197 0.980764
vn 0.000000 -0.195197 0.980764
vn 0.000000 -0.195197 0.980764
vn 0.000000 1.000000 0.000000
vn 0.000000 1.000000 0.000000
vn 0.000000 1.000000 0.000000
vn 0.000000 1.000000 0.000000
vn 0.000000 0.211487 -0.977381
vn 0.000000 0.211487 -0.977381
vn 0.000000 0.211487 -0.977381
vn 0.000000 0.211487 -0.977381
vn 0.000000 -1.000000 0.000000
vn 0.000000 -1.000000 0.000000
vn 0.000000 -1.000000 0.000000
vn 0.000000 -1.000000 0.000000
vn 0.999962 0.008677 0.000000
vn 0.999962 0.008677 0.000000
vn 0.999962 0.008677 0.000000
vn 0.999962 0.008677 0.000000
vn -0.999962 0.008684 0.000000
vn -0.999962 0.008684 0.000000
vn -0.999962 0.008684 0.000000
vn -0.999962 0.008684 0.000000
vn 0.000000 -0.463301 0.886201
vn 0.000000 -0.463301 0.886201
vn 0.000000 -0.463301 0.886201
vn 0.000000 -0.463301 0.886201
vn 0.886192 -0.463318 0.000000
vn 0.886192 -0.463318 0.000000
vn 0.886192 -0.463318 0.000000
vn 0.886192 -0.463318 0.000000
vn 0.000000 -0.463301 -0.886201
vn 0.000000 -0.463301 -0.886201
vn 0.000000 -0.463301 -0.886201
vn 0.000000 -0.463301 -0.886201
vn -0.886192 -0.463318 0.000000
vn -0.886192 -0.463318 0.000000
vn -0.886192 -0.463318 0.000000
vn -0.886192 -0.463318 0.000000
vn 0.995641 0.000000 -0.093271
vn 0.995641 0.000000 -0.093271
vn 0.995641 0.000000 -0.093271
vn 0.995641 0.000000 -0.093271
vn -0.977741 0.204412 -0.047310
vn -0.977741 0.204412 -0.047310
vn -0.977741 0.204412 -0.047310
vn -0.977741 0.204412 -0.047310
vn 0.000000 -0.041867 0.999123
vn 0.000000 -0.041867 0.999123
vn 0.000000 -0.041867 0.999123
vn 0.000000 -0.041867 0.999123
vn 0.000000 -0.942054 -0.335460
vn 0.000000 -0.942054 -0.335460
vn 0.000000 -0.942055 -0.335460
vn 0.000000 -0.942055 -0.335460
vn 0.998759 -0.002788 0.049733
vn 0.998759 -0.002788 0.049733
vn 0.998759 -0.002788 0.049733
vn 0.998759 -0.002788 0.049733
vn 0.000000 0.998429 -0.056029
vn 0.000000 0.998429 -0.056029
vn 0.000000 0.998429 -0.056029
vn 0.000000 0.998429 -0.056029
vn -0.998759 -0.002788 0.049733
vn -0.998759 -0.002788 0.049733
vn -0.998759 -0.002788 0.049733
vn -0.998759 -0.002788 0.049733
vn 0.000000 -0.011468 -0.999934
vn 0.000000 -0.011468 -0.999934
vn 0.000000 -0.011468 -0.999934
vn 0.000000 -0.011468 -0.999934
vn 0.995245 -0.049776 0.083726
vn 0.995245 -0.049776 0.083726
vn 0.995245 -0.049776 0.083726
vn 0.000000 0.923733 -0.383038
vn 0.000000 0.923733 -0.383038
vn 0.000000 0.923733 -0.383037
vn 0.000000 0.923733 -0.383037
vn -0.995245 -0.049776 0.083726
vn -0.995245 -0.049776 0.083726
vn -0.995245 -0.049776 0.083726
vn 0.000000 -0.544267 -0.838912
vn 0.000000 -0.544267 -0.838912
vn 0.000000 -0.544267 -0.838912
vn 0.948504 -0.157157 0.275032
vn 0.948504 -0.157157 0.275032
vn 0.948504 -0.157157 0.275032
vn 0.948504 -0.157157 0.275032
vn 0.000000 0.852815 -0.522213
vn 0.000000 0.852815 -0.522213
vn 0.000000 0.852815 -0.522213
vn -0.948504 -0.157157 0.275032
vn -0.948504 -0.157157 0.275032
vn -0.948504 -0.157157 0.275032
vn -0.948504 -0.157157 0.275032
vn 0.000000 -0.041867 -0.999123
vn 0.000000 -0.041867 -0.999123
vn 0.000000 -0.041867 -0.999123
vn 0.000000 -0.041867 -0.999123
vn 0.000000 -0.825646 -0.564189
vn 0.000000 -0.825646 -0.564189
vn 0.000000 -0.825646 -0.564189
vn 0.000000 -0.825646 -0.564189
vn -0.997834 0.048994 -0.043900
vn -0.997834 0.048994 -0.043900
vn -0.997834 0.048994 -0.043900
vn -0.997834 0.048994 -0.043900
vn 0.000000 0.999931 -0.011725
vn 0.000000 0.999931 -0.011725
vn 0.000000 0.999931 -0.011725
vn 0.000000 0.999931 -0.011725
vn 0.997834 0.048994 -0.043900
vn 0.997834 0.048994 -0.043900
vn 0.997834 0.048994 -0.043900
vn 0.997834 0.048994 -0.043900
vn 0.000000 -0.993852 0.110717
vn 0.000000 -0.993852 0.110717
vn 0.000000 -0.993852 0.110717
vn -0.957020 -0.091079 -0.275349
vn -0.957020 -0.091079 -0.275349
vn -0.957020 -0.091079 -0.275349
vn 0.000000 0.528677 -0.848823
vn 0.000000 0.528677 -0.848823
vn 0.000000 0.528676 -0.848823
vn 0.957020 -0.091079 -0.275349
vn 0.957020 -0.091079 -0.275349
vn 0.957020 -0.091079 -0.275349
vn 0.993796 0.000592 0.111213
vn 0.993796 0.000592 0.111213
vn 0.993796 0.000592 0.111213
vn 0.993796 0.000592 0.111213
vn 0.932463 0.025474 0.360366
vn 0.932463 0.025474 0.360366
vn 0.932463 0.025474 0.360366
vn 0.932463 0.025474 0.360366
vn -0.932463 0.025474 0.360366
vn -0.932463 0.025474 0.360366
vn -0.932463 0.025474 0.360366
vn -0.932463 0.025474 0.360366
vn -0.993796 0.000592 0.111213
vn -0.993796 0.000592 0.111213
vn -0.993796 0.000592 0.111213
vn -0.993796 0.000592 0.111213
vn 0.994277 0.000000 0.106832
vn 0.994277 0.000000 0.106832
vn 0.994277 0.000000 0.106832
vn 0.994277 0.000000 0.106832
vn 0.000000 0.984402 0.175935
vn 0.000000 0.984402 0.175935
vn 0.000000 0.984402 0.175935
vn 0.000000 0.984402 0.175935
vn -0.994277 0.000000 0.106832
vn -0.994277 0.000000 0.106832
vn -0.994277 0.000000 0.106832
vn -0.994277 0.000000 0.106832
vn 0.000000 -0.999134 0.041618
vn 0.000000 -0.999134 0.041618
vn 0.000000 -0.999134 0.041618
vn 0.000000 -0.999134 0.041618
vn 0.000000 -0.113788 -0.993505
vn 0.000000 -0.113788 -0.993505
vn 0.000000 -0.113788 -0.993505
vn 0.000000 -0.113788 -0.993505
vn 0.998874 -0.047448 0.000000
vn 0.998874 -0.047448 0.000000
vn 0.998874 -0.047448 0.000000
vn 0.998874 -0.047448 0.000000
vn 0.000000 0.019529 0.999809
vn 0.000000 0.019529 0.999809
vn 0.000000 0.019529 0.999809
vn 0.000000 0.019529 0.999809
vn -0.998874 -0.047448 0.000000
vn -0.998874 -0.047448 0.000000
vn -0.998874 -0.047448 0.000000
vn -0.998874 -0.047448 0.000000
vn 0.991345 0.131282 0.000000
vn 0.991345 0.131282 0.000000
vn 0.991345 0.131282 0.000000
vn 0.991345 0.131282 0.000000
vn 0.000000 0.021693 -0.999765
vn 0.000000 0.021693 -0.999765
vn 0.000000 0.021693 -0.999765
vn 0.000000 0.021693 -0.999765
vn -0.991345 0.131282 0.000000
vn -0.991345 0.131282 0.000000
vn -0.991345 0.131282 0.000000
vn -0.991345 0.131282 0.000000
vn 0.000000 0.236270 0.971687
vn 0.000000 0.236270 0.971687
vn 0.000000 0.236270 0.971687
vn 0.000000 0.236270 0.971687
vn 0.000000 -0.564587 -0.825373
vn 0.000000 -0.564587 -0.825373
vn 0.000000 -0.564587 -0.825373
vn 0.000000 -0.564587 -0.825373
vn 0.850993 -0.525176 0.000000
vn 0.850993 -0.525176 0.000000
vn 0.850993 -0.525176 0.000000
vn 0.850993 -0.525177 0.000000
vn 0.000000 -0.482048 0.876145
vn 0.000000 -0.482048 0.876145
vn 0.000000 -0.482048 0.876145
vn 0.000000 -0.482048 0.876145
vn -0.850993 -0.525177 0.000000
vn -0.850993 -0.525176 0.000000
vn -0.850993 -0.525177 0.000000
vn -0.850993 -0.525176 0.000000
vn -0.995641 0.000000 -0.093271
vn -0.995641 0.000000 -0.093271
vn -0.995641 0.000000 -0.093271
vn -0.995641 0.000000 -0.093271
vn 0.977741 0.204412 -0.047310
vn 0.977741 0.204412 -0.047310
vn 0.977741 0.204412 -0.047310
vn 0.977741 0.204412 -0.047310
vn 0.000000 -0.113788 -0.993505
vn 0.000000 -0.113788 -0.993505
vn 0.000000 -0.113788 -0.993505
vn 0.000000 -0.113788 -0.993505
vn 0.998874 -0.047444 0.000000
vn 0.998874 -0.047444 0.000000
vn 0.998874 -0.047444 0.000000
vn 0.998874 -0.047444 0.000000
vn 0.000000 0.019529 0.999809
vn 0.000000 0.019529 0.999809
vn 0.000000 0.019529 0.999809
vn 0.000000 0.019529 0.999809
vn -0.998874 -0.047444 0.000000
vn -0.998874 -0.047443 0.000000
vn -0.998874 -0.047444 0.000000
vn -0.998874 -0.047444 0.000000
vn 0.000000 0.211487 -0.977381
vn 0.000000 0.211487 -0.977381
vn 0.000000 0.211487 -0.977381
vn 0.000000 0.211487 -0.977381
vn 0.999962 0.008679 0.000000
vn 0.999962 0.008679 0.000000
vn 0.999962 0.008679 0.000000
vn 0.999962 0.008679 0.000000
vn 0.000000 -0.195197 0.980764
vn 0.000000 -0.195197 0.980764
vn 0.000000 -0.195197 0.980764
vn 0.000000 -0.195197 0.980764
vn -0.999962 0.008670 0.000000
vn -0.999962 0.008670 0.000000
vn -0.999962 0.008670 0.000000
vn -0.999962 0.008670 0.000000
s off
f 50/77/1 47/72/2 61/94/3 62/95/4
f 13/15/5 14/16/6 15/17/7 16/18/8
f 59/91/9 60/92/10 48/73/11 49/76/12
f 51/78/13 52/79/14 53/80/15 54/81/16
f 47/72/17 48/74/18 60/93/19 61/94/20
f 49/75/21 50/77/22 62/95/23 59/90/24
f 3/19/25 4/20/26 10/21/27 9/22/28
f 4/20/29 6/23/30 11/24/31 10/21/32
f 6/23/33 5/25/34 12/26/35 11/24/36
f 5/25/37 3/19/38 9/22/39 12/26/40
f 18/83/41 30/50/42 15/17/43 14/16/44
f 12/26/45 9/22/46 17/27/47 29/82/48
f 9/22/49 10/21/50 18/102/51 17/27/52
f 42/65/53 39/62/54 20/28/55 19/29/56
f 39/62/57 40/63/58 21/30/59 20/28/60
f 40/63/61 41/64/62 22/31/63 21/30/64
f 41/64/65 42/65/66 19/29/67 22/31/68
f 19/29/69 20/28/70 24/46/71 23/48/72
f 20/28/73 36/57/74 24/46/75
f 21/30/76 22/31/77 26/38/78 25/44/79
f 38/60/80 19/29/81 23/48/82
f 23/33/83 24/47/84 27/42/85
f 24/32/86 36/56/87 37/59/88 27/36/89
f 25/34/90 26/39/91 28/37/92
f 37/58/93 38/61/94 23/49/95 27/43/96
f 11/24/97 12/26/98 29/103/99 30/50/100
f 30/50/101 29/104/102 31/52/103 32/51/104
f 29/105/105 16/18/106 33/53/107 31/52/108
f 16/18/109 15/17/110 34/54/111 33/53/112
f 15/17/113 30/50/114 32/51/115 34/54/116
f 32/51/117 31/52/118 35/55/119
f 31/52/120 33/53/121 35/55/122
f 33/53/123 34/54/124 35/55/125
f 34/54/126 32/51/127 35/55/128
f 20/28/129 21/30/130 25/44/131 36/57/132
f 37/59/133 36/56/134 25/45/135 28/40/136
f 26/35/137 38/61/138 37/58/139 28/41/140
f 22/31/141 19/29/142 38/60/143 26/38/144
f 18/106/145 14/16/146 40/63/147 39/62/148
f 14/16/149 13/15/150 41/64/151 40/63/152
f 13/15/153 17/27/154 42/65/155 41/64/156
f 17/27/157 18/107/158 39/62/159 42/65/160
f 55/66/161 56/67/162 44/68/163 43/69/164
f 45/70/165 44/68/166 56/67/167 57/71/168
f 46/96/169 45/70/170 57/71/171 58/97/172
f 43/69/173 46/96/174 58/97/175 55/66/176
f 2/2/177 8/11/178 48/74/179 47/72/180
f 49/76/181 48/73/182 8/8/183 7/7/184
f 7/13/185 1/1/186 50/77/187 49/75/188
f 1/1/189 2/2/190 47/72/191 50/77/192
f 7/7/193 8/8/194 52/79/195 51/78/196
f 8/8/197 2/10/198 53/80/199 52/79/200
f 2/10/201 1/9/202 54/81/203 53/80/204
f 1/9/205 7/7/206 51/78/207 54/81/208
f 29/82/209 17/27/210 13/15/211 16/18/212
f 10/21/213 11/24/214 30/50/215 18/83/216
f 5/5/217 6/6/218 56/86/219 55/85/220
f 57/88/221 56/87/222 6/12/223 4/4/224
f 58/89/225 57/88/226 4/4/227 3/3/228
f 55/84/229 58/89/230 3/3/231 5/14/232
f 43/69/233 44/68/234 60/98/235 59/99/236
f 61/100/237 60/98/238 44/68/239 45/70/240
f 62/101/241 61/100/242 45/70/243 46/96/244
f 59/99/245 62/101/246 46/96/247 43/69/248
