# This file uses meters as units for non-parametric coordinates.

v -4.915497 -12.581776 0.000000
v 0.000000 -12.581776 4.915497
v 0.000000 -12.581776 -4.915497
v 4.915497 -12.581776 0.000000
v 0.000000 -14.486483 -6.368324
v 6.368324 -14.486483 0.000000
v 0.000000 -14.486483 6.368324
v -6.368324 -14.486483 0.000000
v 0.000000 -19.731474 -6.368324
v 6.368324 -19.731474 0.000000
v 0.000000 -19.731474 6.368324
v -6.368324 -19.731474 0.000000
v -4.915496 6.559991 0.000000
v 0.000000 11.487553 -4.924545
v 4.915500 6.559991 0.000000
v -0.000000 11.487553 4.924545
v -12.154821 11.487553 4.927561
v 12.154821 11.487553 4.927561
v -12.154821 16.415113 0.000000
v 12.154821 16.415113 0.000000
v -12.154821 11.487553 -4.927561
v 12.154821 11.487553 -4.927561
v -12.154821 6.559991 0.000000
v 12.154821 6.559991 0.000000
v -7.652073 16.415113 0.000000
v 7.652079 16.415113 0.000000
v 15.661560 4.824291 0.000000
v 15.661560 11.487553 6.663261
v 15.661560 11.487553 -6.663261
v 15.661560 18.150814 0.000000
v -15.661560 4.824291 0.000000
v -15.661560 11.487553 6.663261
v -15.661560 18.150814 0.000000
v -15.661560 11.487553 -6.663261
v 20.343117 11.487553 0.000000
v -20.343117 11.487553 0.000000
v -3.826036 13.951333 2.462273
v 3.826040 13.951333 2.462273
v -3.826036 13.951333 -2.462273
v 3.826040 13.951333 -2.462273
v -5.089573 69.996506 2.462273
v 4.445364 48.825848 2.462273
v 8.843690 69.745033 0.000000
v -9.472640 82.611679 0.000000
v 4.445364 48.825848 -2.462273
v -5.089573 69.996506 -2.462273
v -8.749607 63.145088 0.000000
v -4.351284 55.845558 2.462273
v 4.445364 48.825859 2.462273
v 8.843690 51.156891 0.000000
v 4.445364 48.825859 -2.462273
v -4.351284 55.845558 -2.462273
v 2.439187 59.363480 2.462196
v 1.015589 68.976578 0.000000
v 2.439182 59.363480 -2.462273
v 0.000000 -23.135145 0.000000
vt 0.182446 0.017622
vt 0.182446 0.017622
vt 0.182446 0.017614
vt 0.182446 0.017614
vt 0.182446 0.017614
vt 0.182446 0.017614
vt 0.182446 0.017622
vt 0.182446 0.017622
vt 0.182446 0.017625
vt 0.182446 0.017625
vt 0.182446 0.017625
vt 0.182446 0.017625
vt 0.182446 0.017623
vt 0.182446 0.017623
vt 0.182446 0.017623
vt 0.182446 0.017623
vt 0.182446 0.017614
vt 0.182446 0.017614
vt 0.182446 0.017614
vt 0.182446 0.017614
vt 0.182446 0.017614
vt 0.182446 0.017614
vt 0.182446 0.017614
vt 0.182446 0.097592
vt 0.182446 0.017614
vt 0.182446 0.017614
vt 0.182446 0.017614
vt 0.182446 0.017614
vt 0.182446 0.017614
vt 0.182446 0.017614
vt 0.182446 0.017614
vt 0.182446 0.017614
vt 0.182446 0.017614
vt 0.182446 0.017614
vt 0.182446 0.017614
vt 0.182446 0.097592
vt 0.182446 0.017614
vt 0.182446 0.017614
vt 0.182446 0.017614
vt 0.182446 0.017614
vt 0.182446 0.017614
vt 0.182446 0.017614
vt 0.182446 0.097592
vt 0.182446 0.196462
vt 0.182446 0.097592
vt 0.182446 0.097592
vt 0.182446 0.097578
vt 0.182446 0.097578
vt 0.182446 0.199122
vt 0.182446 0.196462
vt 0.182446 0.097578
vt 0.182446 0.199122
vt 0.182446 0.097578
vt 0.182446 0.097578
vt 0.182446 0.097578
vt 0.182446 0.196462
vt 0.182446 0.097578
vt 0.182446 0.097578
vt 0.182446 0.196462
vt 0.182446 0.097578
vt 0.182446 0.097578
vt 0.182446 0.199122
vt 0.182446 0.199122
vt 0.182446 0.196462
vt 0.182446 0.196518
vt 0.182446 0.199122
vt 0.182446 0.196462
vt 0.182446 0.199122
vt 0.182446 0.196462
vt 0.182446 0.199122
vt 0.182446 0.199122
vt 0.182446 0.199122
vt 0.182446 0.199122
vt 0.182446 0.199122
vt 0.182446 0.199122
vt 0.182446 0.196462
vt 0.182446 0.196462
vt 0.182446 0.196462
vt 0.182446 0.196462
vt 0.182446 0.196462
vt 0.182446 0.196462
vt 0.182446 0.196462
vt 0.182446 0.196462
vt 0.182446 0.017625
vt 0.066872 0.654475
vt 0.066872 0.654475
vt 0.066872 0.654475
vt 0.066872 0.654474
vt 0.066872 0.654475
vt 0.066872 0.654474
vt 0.066872 0.654475
vt 0.066872 0.654475
vn -0.707395 -0.000148 0.706819
vn -0.707395 -0.000148 0.706819
vn -0.707395 -0.000148 0.706819
vn -0.707395 -0.000148 0.706818
vn 0.707395 -0.000148 -0.706819
vn 0.707395 -0.000148 -0.706819
vn 0.707395 -0.000148 -0.706819
vn 0.707395 -0.000148 -0.706819
vn 0.000000 -0.881937 0.471368
vn 0.000000 -1.000000 0.000000
vn 0.471368 -0.881937 0.000000
vn 0.707395 -0.000148 0.706819
vn 0.707395 -0.000148 0.706819
vn 0.707395 -0.000148 0.706819
vn 0.707395 -0.000148 0.706819
vn -0.707395 -0.000148 -0.706818
vn -0.707395 -0.000148 -0.706819
vn -0.707395 -0.000148 -0.706818
vn -0.707395 -0.000148 -0.706819
vn 0.622356 0.474706 -0.622356
vn 0.622356 0.474706 -0.622356
vn 0.622356 0.474706 -0.622356
vn 0.622356 0.474706 -0.622356
vn 0.622356 0.474706 0.622356
vn 0.622356 0.474706 0.622356
vn 0.622356 0.474706 0.622356
vn 0.622356 0.474706 0.622356
vn -0.622356 0.474706 0.622356
vn -0.622356 0.474706 0.622356
vn -0.622356 0.474706 0.622356
vn -0.622356 0.474706 0.622356
vn -0.622356 0.474706 -0.622356
vn -0.622356 0.474706 -0.622356
vn -0.622356 0.474706 -0.622356
vn -0.622356 0.474706 -0.622356
vn 0.707107 0.000000 -0.707107
vn 0.707107 0.000000 -0.707107
vn 0.707107 0.000000 -0.707107
vn 0.707107 0.000000 -0.707107
vn 0.707107 0.000000 0.707107
vn 0.707107 0.000000 0.707107
vn 0.707107 0.000000 0.707107
vn 0.707107 0.000000 0.707107
vn -0.707107 0.000000 0.707107
vn -0.707107 0.000000 0.707107
vn -0.707107 0.000000 0.707107
vn -0.707107 0.000000 0.707107
vn -0.707107 0.000000 -0.707107
vn -0.707107 0.000000 -0.707107
vn -0.707107 0.000000 -0.707107
vn -0.707107 0.000000 -0.707107
vn 0.399514 0.301073 0.865877
vn 0.399287 0.291872 0.869126
vn 0.399648 0.307413 0.863585
vn 0.000000 0.706890 -0.707323
vn 0.000000 0.706890 -0.707323
vn 0.000000 0.706890 -0.707323
vn 0.000101 0.707061 0.707153
vn 0.000101 0.707061 0.707153
vn 0.000101 0.707061 0.707153
vn 0.000101 0.707061 0.707153
vn 0.000110 -0.707026 0.707188
vn 0.000110 -0.707026 0.707188
vn 0.000110 -0.707026 0.707188
vn 0.000110 -0.707026 0.707188
vn 0.000110 -0.707026 -0.707188
vn 0.000110 -0.707026 -0.707188
vn 0.000110 -0.707026 -0.707188
vn 0.000110 -0.707026 -0.707188
vn 0.000101 0.707061 -0.707153
vn 0.000101 0.707061 -0.707153
vn 0.000101 0.707061 -0.707153
vn 0.000101 0.707061 -0.707153
vn -0.000110 -0.707026 0.707188
vn -0.000110 -0.707026 0.707188
vn -0.000110 -0.707026 0.707188
vn -0.000110 -0.707026 0.707188
vn -0.000175 0.707027 0.707187
vn -0.000175 0.707027 0.707187
vn -0.000175 0.707027 0.707187
vn -0.000101 0.707061 -0.707153
vn -0.000101 0.707061 -0.707153
vn -0.000101 0.707061 -0.707153
vn -0.000101 0.707061 -0.707153
vn -0.000110 -0.707026 -0.707188
vn -0.000110 -0.707026 -0.707188
vn -0.000110 -0.707026 -0.707188
vn -0.000110 -0.707026 -0.707188
vn -0.330342 -0.667411 0.667411
vn -0.330342 -0.667411 0.667411
vn -0.330342 -0.667411 0.667411
vn -0.330342 -0.667411 0.667411
vn -0.330342 -0.667411 -0.667411
vn -0.330342 -0.667411 -0.667411
vn -0.330342 -0.667411 -0.667411
vn -0.330342 -0.667411 -0.667411
vn -0.330342 0.667411 -0.667411
vn -0.330343 0.667411 -0.667411
vn -0.330343 0.667411 -0.667411
vn -0.330342 0.667411 -0.667411
vn -0.330343 0.667411 0.667411
vn -0.330342 0.667411 0.667411
vn -0.330342 0.667411 0.667411
vn -0.330342 0.667411 0.667411
vn 0.330342 -0.667411 0.667411
vn 0.330342 -0.667411 0.667411
vn 0.330342 -0.667411 0.667411
vn 0.330342 -0.667411 0.667411
vn 0.330342 0.667411 0.667411
vn 0.330343 0.667411 0.667411
vn 0.330343 0.667411 0.667411
vn 0.330342 0.667411 0.667411
vn 0.330343 0.667411 -0.667411
vn 0.330342 0.667411 -0.667411
vn 0.330342 0.667411 -0.667411
vn 0.330342 0.667411 -0.667411
vn 0.330342 -0.667411 -0.667411
vn 0.330342 -0.667411 -0.667411
vn 0.330342 -0.667411 -0.667411
vn 0.330342 -0.667411 -0.667411
vn 0.709368 -0.498396 0.498396
vn 0.709368 -0.498396 0.498396
vn 0.709368 -0.498396 0.498396
vn 0.709368 -0.498396 -0.498396
vn 0.709368 -0.498396 -0.498396
vn 0.709368 -0.498396 -0.498396
vn 0.709368 0.498396 -0.498396
vn 0.709368 0.498396 -0.498396
vn 0.709368 0.498396 -0.498396
vn 0.709368 0.498396 0.498396
vn 0.709368 0.498396 0.498396
vn 0.709368 0.498396 0.498396
vn -0.709368 -0.498396 0.498396
vn -0.709368 -0.498396 0.498396
vn -0.709368 -0.498396 0.498396
vn -0.709368 0.498396 0.498396
vn -0.709368 0.498396 0.498396
vn -0.709368 0.498396 0.498396
vn -0.709368 0.498396 -0.498396
vn -0.709368 0.498396 -0.498396
vn -0.709368 0.498396 -0.498396
vn -0.709368 -0.498396 -0.498396
vn -0.709368 -0.498396 -0.498396
vn -0.709368 -0.498396 -0.498396
vn 0.000000 0.706890 0.707323
vn 0.000000 0.706890 0.707323
vn 0.000000 0.706890 0.707323
vn 0.399648 0.307413 -0.863585
vn 0.399287 0.291876 -0.869125
vn 0.399514 0.301074 -0.865877
vn 0.000175 0.707027 0.707187
vn 0.000175 0.707027 0.707187
vn 0.000175 0.707027 0.707187
vn -0.000101 0.707061 0.707153
vn -0.000101 0.707061 0.707153
vn -0.000101 0.707061 0.707153
vn -0.000101 0.707061 0.707153
vn -0.000175 0.707027 -0.707187
vn -0.000175 0.707027 -0.707187
vn -0.000175 0.707027 -0.707187
vn 0.000175 0.707027 -0.707187
vn 0.000175 0.707027 -0.707187
vn 0.000175 0.707027 -0.707187
vn 0.000011 0.000001 1.000000
vn 0.000011 0.000001 1.000000
vn 0.000011 0.000001 1.000000
vn 0.488484 0.000000 0.872573
vn 0.488484 0.000000 0.872573
vn 0.488484 0.000000 0.872573
vn 0.488484 0.000000 0.872573
vn -0.528102 -0.022956 0.848871
vn -0.528102 -0.022956 0.848871
vn -0.528102 -0.022956 0.848871
vn -0.528102 -0.022956 0.848871
vn 0.488484 0.000000 -0.872573
vn 0.488484 0.000000 -0.872573
vn 0.488484 0.000000 -0.872573
vn 0.488484 0.000000 -0.872573
vn 0.000000 0.000000 -1.000000
vn 0.000000 0.000000 -1.000000
vn 0.000000 0.000000 -1.000000
vn -0.528102 -0.022956 -0.848871
vn -0.528102 -0.022956 -0.848871
vn -0.528102 -0.022956 -0.848871
vn -0.528102 -0.022956 -0.848871
vn -0.522028 -0.009559 0.852875
vn -0.522028 -0.009559 0.852875
vn -0.522028 -0.009559 0.852875
vn -0.522028 -0.009559 0.852875
vn 0.000000 0.000000 1.000000
vn 0.000000 0.000000 1.000000
vn 0.000000 0.000000 1.000000
vn 0.000000 0.000000 1.000000
vn 0.519463 -0.013513 0.854386
vn 0.519463 -0.013513 0.854386
vn 0.519463 -0.013513 0.854386
vn 0.519463 -0.013513 0.854386
vn 0.519463 -0.013513 -0.854386
vn 0.519463 -0.013513 -0.854386
vn 0.519463 -0.013513 -0.854386
vn 0.519463 -0.013513 -0.854386
vn 0.000000 0.000000 -1.000000
vn 0.000000 0.000000 -1.000000
vn 0.000000 0.000000 -1.000000
vn 0.000000 0.000000 -1.000000
vn -0.522028 -0.009559 -0.852875
vn -0.522028 -0.009559 -0.852875
vn -0.522028 -0.009559 -0.852875
vn -0.522028 -0.009559 -0.852875
vn 0.000000 0.000000 -0.000000
vn 0.000000 0.000000 -1.000000
vn 0.000000 0.000000 -1.000000
vn 0.000007 0.000009 1.000000
vn 0.000007 0.000009 1.000000
vn 0.000007 0.000009 1.000000
vn -0.024022 0.244709 0.969299
vn -0.024022 0.244709 0.969299
vn -0.024022 0.244709 0.969299
vn -0.024023 0.244716 -0.969297
vn -0.024023 0.244716 -0.969297
vn -0.024023 0.244716 -0.969297
vn -0.056501 0.000000 0.998403
vn -0.000000 0.000000 0.000000
vn -0.056501 0.000000 0.998403
vn -0.000000 0.000000 -1.000000
vn -0.000000 0.000000 -1.000000
vn -0.000000 0.000000 -1.000000
vn 0.281459 0.053592 0.958076
vn 0.281459 0.053592 0.958076
vn 0.281459 0.053592 0.958076
vn 0.281475 0.053588 -0.958071
vn 0.281475 0.053588 -0.958071
vn 0.281475 0.053588 -0.958071
vn 0.399514 0.301073 0.865877
vn 0.399019 0.282521 0.872334
vn 0.399287 0.291872 0.869126
vn 0.399514 0.301074 -0.865877
vn 0.399287 0.291876 -0.869125
vn 0.399019 0.282527 -0.872332
vn 0.000000 -0.881937 -0.471368
vn 0.471368 -0.881937 0.000000
vn 0.000000 -1.000000 0.000000
vn -0.471368 -0.881937 0.000000
vn 0.000000 -1.000000 0.000000
vn 0.000000 -0.881937 0.471368
vn 0.000000 -0.881937 -0.471368
vn 0.000000 -1.000000 0.000000
vn -0.471368 -0.881937 0.000000
s off
f 1/85/1 2/86/2 16/87/3 13/88/4
f 14/89/5 15/90/6 4/91/7 3/92/8
f 11/11/9 56/84/10 10/10/11
f 2/86/12 4/91/13 15/90/14 16/87/15
f 3/92/16 1/85/17 13/88/18 14/89/19
f 3/8/20 4/7/21 6/13/22 5/14/23
f 4/7/24 2/2/25 7/15/26 6/13/27
f 2/2/28 1/1/29 8/16/30 7/15/31
f 1/1/32 3/8/33 5/14/34 8/16/35
f 5/14/36 6/13/37 10/10/38 9/9/39
f 6/13/40 7/15/41 11/11/42 10/10/43
f 7/15/44 8/16/45 12/12/46 11/11/47
f 8/16/48 5/14/49 9/9/50 12/12/51
f 41/44/52 54/64/53 44/65/54
f 39/17/55 40/18/56 14/5/57
f 17/19/58 37/20/59 25/21/60 19/22/61
f 23/23/62 13/4/63 16/3/64 17/19/65
f 21/25/66 14/5/67 13/4/68 23/23/69
f 19/22/70 25/21/71 39/17/72 21/25/73
f 16/3/74 15/6/75 24/26/76 18/27/77
f 18/27/78 38/28/79 16/3/80
f 22/29/81 40/18/82 26/30/83 20/31/84
f 15/6/85 14/5/86 22/29/87 24/26/88
f 18/27/89 24/26/90 27/32/91 28/33/92
f 24/26/93 22/29/94 29/34/95 27/32/96
f 22/29/97 20/31/98 30/35/99 29/34/100
f 20/31/101 18/27/102 28/33/103 30/35/104
f 23/23/105 17/19/106 32/37/107 31/38/108
f 17/19/109 19/22/110 33/39/111 32/37/112
f 19/22/113 21/25/114 34/40/115 33/39/116
f 21/25/117 23/23/118 31/38/119 34/40/120
f 28/33/121 27/32/122 35/41/123
f 27/32/124 29/34/125 35/41/126
f 29/34/127 30/35/128 35/41/129
f 30/35/130 28/33/131 35/41/132
f 31/38/133 32/37/134 36/42/135
f 32/37/136 33/39/137 36/42/138
f 33/39/139 34/40/140 36/42/141
f 34/40/142 31/38/143 36/42/144
f 16/3/145 38/28/146 37/20/147
f 44/65/148 54/64/149 46/69/150
f 17/19/151 16/3/152 37/20/153
f 26/30/154 38/28/155 18/27/156 20/31/157
f 14/5/158 40/18/159 22/29/160
f 21/25/161 39/17/162 14/5/163
f 48/47/164 53/36/165 41/24/166
f 49/50/167 50/56/168 43/59/169 42/67/170
f 47/81/171 48/82/172 41/44/173 44/65/174
f 50/56/175 51/76/176 45/77/177 43/59/178
f 51/53/179 52/55/180 55/45/181
f 52/83/182 47/81/183 44/65/184 46/69/185
f 25/70/186 37/71/187 48/63/188 47/62/189
f 37/57/190 38/58/191 49/48/192 48/47/193
f 38/72/194 26/73/195 50/52/196 49/49/197
f 26/73/198 40/74/199 51/66/200 50/52/201
f 40/60/202 39/61/203 52/55/204 51/53/205
f 39/75/206 25/70/207 47/62/208 52/68/209
f 53/36/210 49/48/211 42/51/212
f 48/47/213 49/48/214 53/36/215
f 54/78/216 53/79/217 43/59/218
f 55/80/219 54/78/220 43/59/221
f 51/53/222 55/45/223 45/54/224
f 55/45/225 52/55/226 46/46/227
f 43/59/228 53/79/229 42/67/230
f 55/80/231 43/59/232 45/77/233
f 41/24/234 53/36/235 54/43/236
f 46/46/237 54/43/238 55/45/239
f 9/9/240 10/10/241 56/84/242
f 12/12/243 56/84/244 11/11/245
f 9/9/246 56/84/247 12/12/248
