# This file uses meters as units for non-parametric coordinates.

v -1.420760 -95.024284 -8.506757
v 1.420758 -95.024284 -8.506754
v 2.841517 -93.475204 -12.068647
v 1.420759 -91.926132 -15.630536
v -1.420758 -91.926132 -15.630537
v -2.841517 -93.475204 -12.068648
v -1.420760 95.024284 -8.506757
v 1.420758 95.024284 -8.506754
v 2.841517 93.475204 -12.068647
v 1.420759 91.926132 -15.630536
v -1.420758 91.926132 -15.630537
v -2.841517 93.475204 -12.068648
v 0.000000 -93.475204 -12.068648
v 0.000000 93.475204 -12.068648
v -4.612008 66.356995 -7.522120
v -2.306004 65.160851 -13.349475
v 2.306005 65.160851 -13.349474
v 4.612008 66.356995 -7.522120
v 2.306003 67.553146 -1.694765
v -2.306006 67.553146 -1.694767
v -2.306006 -67.553146 -1.694766
v 2.306003 -67.553146 -1.694765
v 4.612008 -66.356995 -7.522120
v 2.306005 -65.160851 -13.349475
v -2.306004 -65.160851 -13.349475
v -4.612008 -66.356995 -7.522120
v -4.197708 -14.961960 -4.220167
v 4.197711 -14.961960 -4.220167
v 8.395417 -14.969044 4.840065
v 4.197708 -14.956032 12.857615
v -4.197711 -14.956032 12.857611
v -8.395417 -14.969044 4.840062
v -4.197711 14.956032 12.857611
v 4.197708 14.956032 12.857615
v 8.395417 14.969044 4.840065
v 4.197711 14.961962 -4.220167
v -4.197708 14.961962 -4.220167
v -8.395417 14.969044 4.840062
v 2.699601 -10.452005 6.457515
v -2.699602 -10.452005 6.457514
v -5.399202 -10.461097 2.529361
v -2.699601 -10.456149 -2.551808
v 2.699602 -10.456149 -2.551808
v 5.399202 -10.461097 2.529363
v 2.699602 10.456152 -2.551808
v -2.699601 10.456152 -2.551808
v -5.399202 10.461097 2.529361
v -2.699602 10.452006 6.457514
v 2.699601 10.452006 6.457515
v 5.399203 10.461097 2.529363
v 3.860403 -44.668102 1.723758
v -3.860401 -44.668102 1.723758
v -7.720803 -45.354286 9.344625
v -3.860404 -46.030418 15.603499
v 3.860400 -46.030418 15.603502
v 7.720803 -45.354286 9.344627
v 3.860400 46.030418 15.603502
v -3.860404 46.030418 15.603499
v -7.720803 45.354286 9.344625
v -3.860401 44.668102 1.723758
v 3.860403 44.668102 1.723759
v 7.720803 45.354286 9.344627
v 1.686333 -83.896553 -14.946218
v -1.686332 -83.896553 -14.946218
v -3.372664 -85.339745 -10.704690
v -1.686334 -86.782936 -6.463160
v 1.686331 -86.782936 -6.463157
v 3.372664 -85.339745 -10.704689
v 1.686331 86.782936 -6.463157
v -1.686334 86.782936 -6.463161
v -3.372664 85.339745 -10.704690
v -1.686332 83.896553 -14.946218
v 1.686333 83.896553 -14.946218
v 3.372664 85.339745 -10.704689
vt 0.050516 0.109751
vt 0.050516 0.109751
vt 0.050516 0.109751
vt 0.050516 0.109751
vt 0.050516 0.109751
vt 0.050516 0.109751
vt 0.050516 0.109751
vt 0.050516 0.109751
vt 0.050516 0.109751
vt 0.050516 0.109751
vt 0.050516 0.109751
vt 0.050516 0.109751
vt 0.050516 0.109751
vt 0.050516 0.109751
vt 0.050516 0.109751
vt 0.050516 0.109751
vt 0.050516 0.109751
vt 0.050516 0.109751
vt 0.050516 0.109751
vt 0.050516 0.109751
vt 0.050516 0.109751
vt 0.050516 0.109751
vt 0.050516 0.109751
vt 0.050516 0.109751
vt 0.050516 0.109751
vt 0.050516 0.109751
vt 0.050516 0.109751
vt 0.050516 0.109751
vt 0.050516 0.109751
vt 0.050516 0.109751
vt 0.050516 0.109751
vt 0.050516 0.109751
vt 0.050516 0.109751
vt 0.050516 0.109751
vt 0.050516 0.109751
vt 0.050516 0.109751
vt 0.050516 0.109751
vt 0.050516 0.109751
vt 0.050516 0.109751
vt 0.050516 0.109751
vt 0.050516 0.109751
vt 0.050516 0.109751
vt 0.050516 0.109751
vt 0.050516 0.109751
vt 0.050516 0.109751
vt 0.050516 0.109751
vt 0.050516 0.109751
vt 0.050516 0.109751
vt 0.050516 0.109751
vt 0.050516 0.109751
vt 0.050516 0.109751
vt 0.050516 0.109751
vt 0.050516 0.109751
vt 0.050516 0.109751
vt 0.050516 0.109751
vt 0.050516 0.109751
vt 0.050516 0.109751
vt 0.050516 0.109751
vt 0.050516 0.109751
vt 0.050516 0.109751
vt 0.050516 0.109751
vt 0.050516 0.109751
vt 0.050516 0.109751
vt 0.050516 0.109751
vt 0.050516 0.109751
vt 0.050516 0.109751
vt 0.050516 0.109751
vt 0.050516 0.109751
vt 0.050516 0.109751
vt 0.050516 0.109751
vt 0.050516 0.109751
vt 0.050516 0.109751
vt 0.050516 0.109751
vt 0.050516 0.109751
vt 0.050516 0.109751
vt 0.050516 0.109751
vt 0.050516 0.109751
vt 0.050516 0.109751
vt 0.050516 0.109751
vt 0.050516 0.109751
vt 0.050516 0.109751
vt 0.050516 0.109751
vt 0.050516 0.109751
vt 0.050516 0.109751
vt 0.181579 0.021775
vt 0.181579 0.021775
vt 0.181579 0.021775
vt 0.181579 0.021775
vt 0.181579 0.021775
vt 0.181579 0.021775
vt 0.181579 0.021775
vt 0.181579 0.021775
vt 0.181579 0.021775
vt 0.181579 0.021775
vt 0.181579 0.021775
vt 0.181579 0.021775
vt 0.050516 0.109751
vt 0.050516 0.109751
vt 0.050516 0.109751
vt 0.050516 0.109751
vt 0.050516 0.109751
vt 0.050516 0.109751
vt 0.050516 0.109751
vt 0.050516 0.109751
vt 0.050516 0.109751
vt 0.050516 0.109751
vt 0.050516 0.109751
vt 0.050516 0.109751
vt 0.050516 0.109751
vt 0.050516 0.109751
vt 0.089115 0.697690
vt 0.089116 0.697690
vt 0.089115 0.697690
vt 0.089115 0.697690
vt 0.089115 0.697690
vt 0.089115 0.697690
vt 0.089116 0.697690
vt 0.089116 0.697690
vt 0.089115 0.697690
vt 0.089115 0.697690
vt 0.089115 0.697690
vt 0.089115 0.697690
vt 0.089115 0.697690
vt 0.089115 0.697690
vt 0.089115 0.697690
vt 0.089115 0.697690
vt 0.089116 0.697690
vt 0.089116 0.697690
vt 0.089115 0.697690
vt 0.089115 0.697690
vt 0.089115 0.697690
vt 0.089115 0.697690
vt 0.089115 0.697690
vt 0.089116 0.697690
vn -0.000000 -0.088022 0.996119
vn -0.000000 -0.088022 0.996119
vn -0.000000 -0.088022 0.996119
vn -0.000000 -0.088022 0.996119
vn 0.869146 -0.043804 0.492611
vn 0.869146 -0.043804 0.492611
vn 0.869146 -0.043804 0.492611
vn 0.869146 -0.043804 0.492611
vn 0.895227 0.090926 -0.436235
vn 0.895227 0.090926 -0.436235
vn 0.895227 0.090926 -0.436235
vn 0.895227 0.090926 -0.436235
vn 0.000000 0.196202 -0.980564
vn 0.000000 0.196202 -0.980564
vn 0.000000 0.196202 -0.980564
vn 0.000000 0.196202 -0.980564
vn -0.895227 0.090926 -0.436235
vn -0.895227 0.090926 -0.436235
vn -0.895227 0.090926 -0.436235
vn -0.895227 0.090926 -0.436235
vn -0.869147 -0.043803 0.492611
vn -0.869147 -0.043803 0.492611
vn -0.869147 -0.043803 0.492611
vn -0.869147 -0.043803 0.492611
vn 0.000001 -0.917028 -0.398824
vn 0.000001 -0.917028 -0.398824
vn 0.000001 -0.917028 -0.398824
vn 0.000000 -0.917032 -0.398814
vn 0.000000 -0.917032 -0.398814
vn 0.000000 -0.917032 -0.398814
vn 0.000000 -0.917029 -0.398820
vn 0.000000 -0.917029 -0.398820
vn 0.000000 -0.917029 -0.398820
vn 0.000000 -0.917030 -0.398817
vn 0.000000 -0.917031 -0.398817
vn 0.000000 -0.917030 -0.398817
vn 0.000000 -0.917029 -0.398819
vn 0.000000 -0.917030 -0.398820
vn 0.000000 -0.917029 -0.398819
vn 0.000000 -0.917031 -0.398817
vn 0.000000 -0.917031 -0.398817
vn 0.000000 -0.917031 -0.398817
vn 0.000001 0.917028 -0.398824
vn 0.000001 0.917028 -0.398824
vn 0.000001 0.917028 -0.398824
vn 0.000000 0.917032 -0.398814
vn 0.000000 0.917032 -0.398814
vn 0.000000 0.917032 -0.398814
vn 0.000000 0.917029 -0.398820
vn 0.000000 0.917029 -0.398820
vn 0.000000 0.917029 -0.398820
vn 0.000000 0.917031 -0.398817
vn 0.000000 0.917030 -0.398817
vn 0.000000 0.917030 -0.398817
vn 0.000000 0.917030 -0.398820
vn 0.000000 0.917029 -0.398819
vn 0.000000 0.917029 -0.398819
vn 0.000000 0.917030 -0.398819
vn 0.000000 0.917030 -0.398819
vn 0.000000 0.917030 -0.398819
vn -0.000000 0.088022 0.996119
vn -0.000000 0.088022 0.996119
vn -0.000000 0.088022 0.996119
vn -0.000000 0.088022 0.996119
vn 0.869146 0.043804 0.492611
vn 0.869146 0.043804 0.492611
vn 0.869146 0.043804 0.492611
vn 0.869146 0.043804 0.492611
vn 0.895227 -0.090926 -0.436235
vn 0.895227 -0.090926 -0.436235
vn 0.895227 -0.090926 -0.436235
vn 0.895227 -0.090926 -0.436235
vn 0.000000 -0.196202 -0.980564
vn 0.000000 -0.196202 -0.980564
vn 0.000000 -0.196202 -0.980564
vn 0.000000 -0.196202 -0.980564
vn -0.895227 -0.090926 -0.436235
vn -0.895227 -0.090926 -0.436235
vn -0.895227 -0.090926 -0.436235
vn -0.895227 -0.090926 -0.436235
vn -0.869147 0.043803 0.492611
vn -0.869147 0.043803 0.492611
vn -0.869147 0.043803 0.492611
vn -0.869147 0.043803 0.492611
vn -0.929670 -0.000859 -0.368392
vn -0.929670 -0.000859 -0.368392
vn -0.929670 -0.000859 -0.368392
vn -0.929670 -0.000859 -0.368392
vn 0.000000 -0.084917 -0.996388
vn 0.000000 -0.084917 -0.996388
vn 0.000000 -0.084917 -0.996388
vn 0.000000 -0.084917 -0.996388
vn 0.929670 -0.000859 -0.368391
vn 0.929671 -0.000859 -0.368391
vn 0.929670 -0.000859 -0.368391
vn 0.929670 -0.000859 -0.368391
vn 0.933361 0.116079 0.339652
vn 0.933361 0.116079 0.339652
vn 0.933361 0.116079 0.339652
vn 0.933361 0.116079 0.339652
vn -0.000001 0.240680 0.970605
vn -0.000001 0.240680 0.970605
vn -0.000001 0.240680 0.970605
vn -0.000001 0.240680 0.970605
vn -0.933361 0.116079 0.339652
vn -0.933361 0.116079 0.339652
vn -0.933361 0.116079 0.339652
vn -0.933361 0.116079 0.339652
vn -0.000001 -0.240680 0.970605
vn -0.000001 -0.240680 0.970605
vn -0.000001 -0.240680 0.970605
vn -0.000001 -0.240680 0.970605
vn 0.933361 -0.116079 0.339652
vn 0.933361 -0.116079 0.339652
vn 0.933361 -0.116079 0.339652
vn 0.933361 -0.116079 0.339652
vn 0.929670 0.000859 -0.368391
vn 0.929671 0.000859 -0.368391
vn 0.929670 0.000859 -0.368391
vn 0.929670 0.000859 -0.368391
vn 0.000000 0.084917 -0.996388
vn 0.000000 0.084917 -0.996388
vn 0.000000 0.084917 -0.996388
vn 0.000000 0.084917 -0.996388
vn -0.929670 0.000859 -0.368392
vn -0.929670 0.000859 -0.368392
vn -0.929670 0.000859 -0.368392
vn -0.929670 0.000859 -0.368392
vn -0.933361 -0.116079 0.339652
vn -0.933361 -0.116079 0.339652
vn -0.933361 -0.116079 0.339652
vn -0.933361 -0.116079 0.339652
vn 0.000000 0.347230 -0.937780
vn 0.000000 0.347230 -0.937780
vn 0.000000 0.347230 -0.937780
vn 0.000000 0.347230 -0.937780
vn 0.829686 0.384873 -0.404343
vn 0.829687 0.384873 -0.404343
vn 0.829686 0.384873 -0.404343
vn 0.829687 0.384873 -0.404343
vn 0.639665 0.674790 0.368087
vn 0.639665 0.674790 0.368087
vn 0.639665 0.674790 0.368087
vn 0.639665 0.674790 0.368087
vn -0.000000 0.817791 0.575515
vn -0.000000 0.817791 0.575515
vn -0.000000 0.817791 0.575515
vn -0.000000 0.817791 0.575515
vn -0.639665 0.674790 0.368086
vn -0.639665 0.674790 0.368086
vn -0.639665 0.674790 0.368086
vn -0.639665 0.674790 0.368086
vn -0.829687 0.384873 -0.404343
vn -0.829687 0.384873 -0.404343
vn -0.829686 0.384873 -0.404343
vn -0.829687 0.384873 -0.404343
vn -0.000000 -0.817791 0.575515
vn -0.000000 -0.817791 0.575515
vn -0.000000 -0.817791 0.575515
vn -0.000000 -0.817791 0.575515
vn 0.639665 -0.674790 0.368087
vn 0.639665 -0.674790 0.368087
vn 0.639665 -0.674790 0.368087
vn 0.639665 -0.674790 0.368087
vn 0.829686 -0.384873 -0.404343
vn 0.829686 -0.384873 -0.404343
vn 0.829686 -0.384873 -0.404343
vn 0.829686 -0.384873 -0.404343
vn 0.000000 -0.347230 -0.937780
vn 0.000000 -0.347230 -0.937780
vn 0.000000 -0.347230 -0.937780
vn 0.000000 -0.347230 -0.937780
vn -0.829686 -0.384873 -0.404343
vn -0.829686 -0.384873 -0.404343
vn -0.829686 -0.384873 -0.404343
vn -0.829686 -0.384873 -0.404343
vn -0.639665 -0.674790 0.368086
vn -0.639665 -0.674790 0.368086
vn -0.639665 -0.674790 0.368086
vn -0.639665 -0.674790 0.368086
vn 0.000000 0.000000 -1.000000
vn 0.000000 0.000000 -1.000000
vn 0.000000 0.000000 -1.000000
vn 0.000000 0.000000 -1.000000
vn -0.883099 0.000000 -0.469186
vn -0.883099 0.000000 -0.469186
vn -0.883099 0.000000 -0.469186
vn -0.883099 0.000000 -0.469186
vn -0.824140 0.000000 0.566386
vn -0.824140 0.000000 0.566386
vn -0.824140 0.000000 0.566386
vn -0.824140 0.000000 0.566386
vn -0.000000 0.000000 1.000000
vn -0.000000 0.000000 1.000000
vn -0.000000 0.000000 1.000000
vn -0.000000 0.000000 1.000000
vn 0.824140 -0.000000 0.566386
vn 0.824140 -0.000000 0.566386
vn 0.824140 -0.000000 0.566386
vn 0.824140 -0.000000 0.566386
vn 0.883099 0.000000 -0.469186
vn 0.883099 0.000000 -0.469186
vn 0.883099 0.000000 -0.469186
vn 0.883099 0.000000 -0.469186
vn 0.000000 0.592519 -0.805557
vn 0.000000 0.592519 -0.805557
vn 0.000000 0.592519 -0.805556
vn 0.000000 0.592519 -0.805556
vn -0.901502 0.195775 -0.385963
vn -0.901501 0.195775 -0.385963
vn -0.901502 0.195775 -0.385963
vn -0.901502 0.195775 -0.385963
vn -0.843385 -0.389685 0.369929
vn -0.843385 -0.389685 0.369929
vn -0.843385 -0.389685 0.369929
vn -0.843385 -0.389685 0.369929
vn -0.000000 -0.626462 0.779452
vn -0.000000 -0.626462 0.779452
vn -0.000000 -0.626462 0.779452
vn -0.000000 -0.626462 0.779452
vn 0.843385 -0.389685 0.369929
vn 0.843385 -0.389685 0.369929
vn 0.843385 -0.389685 0.369929
vn 0.843385 -0.389685 0.369929
vn 0.901502 0.195775 -0.385963
vn 0.901502 0.195775 -0.385963
vn 0.901502 0.195775 -0.385963
vn 0.901502 0.195775 -0.385963
vn -0.000000 0.626462 0.779452
vn -0.000000 0.626462 0.779452
vn -0.000000 0.626462 0.779452
vn -0.000000 0.626462 0.779452
vn -0.843385 0.389685 0.369929
vn -0.843385 0.389685 0.369929
vn -0.843385 0.389685 0.369929
vn -0.843385 0.389685 0.369929
vn -0.901502 -0.195775 -0.385963
vn -0.901502 -0.195775 -0.385963
vn -0.901501 -0.195775 -0.385963
vn -0.901502 -0.195775 -0.385963
vn 0.000000 -0.592519 -0.805556
vn 0.000000 -0.592519 -0.805556
vn 0.000000 -0.592519 -0.805556
vn 0.000000 -0.592519 -0.805556
vn 0.901502 -0.195775 -0.385963
vn 0.901502 -0.195775 -0.385963
vn 0.901502 -0.195775 -0.385963
vn 0.901502 -0.195775 -0.385963
vn 0.843385 0.389685 0.369930
vn 0.843385 0.389685 0.369930
vn 0.843385 0.389685 0.369930
vn 0.843385 0.389685 0.369930
vn 0.000000 0.084917 -0.996388
vn 0.000000 0.084917 -0.996388
vn 0.000000 0.084917 -0.996388
vn 0.000000 0.084917 -0.996388
vn -0.929197 0.001033 -0.369583
vn -0.929197 0.001033 -0.369583
vn -0.929197 0.001033 -0.369583
vn -0.929197 0.001033 -0.369583
vn -0.937259 -0.114140 0.329420
vn -0.937259 -0.114140 0.329420
vn -0.937259 -0.114140 0.329420
vn -0.937259 -0.114140 0.329420
vn -0.000001 -0.240680 0.970605
vn -0.000001 -0.240680 0.970605
vn -0.000001 -0.240680 0.970605
vn -0.000001 -0.240680 0.970605
vn 0.937259 -0.114140 0.329420
vn 0.937259 -0.114140 0.329420
vn 0.937259 -0.114140 0.329420
vn 0.937259 -0.114140 0.329420
vn 0.929197 0.001033 -0.369583
vn 0.929197 0.001033 -0.369582
vn 0.929197 0.001033 -0.369583
vn 0.929197 0.001033 -0.369582
vn -0.000001 0.240680 0.970605
vn -0.000001 0.240680 0.970605
vn -0.000001 0.240680 0.970605
vn -0.000001 0.240680 0.970605
vn -0.937259 0.114140 0.329420
vn -0.937259 0.114140 0.329420
vn -0.937259 0.114140 0.329420
vn -0.937259 0.114140 0.329420
vn -0.929197 -0.001033 -0.369583
vn -0.929197 -0.001033 -0.369583
vn -0.929197 -0.001033 -0.369583
vn -0.929197 -0.001033 -0.369583
vn 0.000000 -0.084917 -0.996388
vn 0.000000 -0.084917 -0.996388
vn 0.000000 -0.084917 -0.996388
vn 0.000000 -0.084917 -0.996388
vn 0.929197 -0.001033 -0.369583
vn 0.929197 -0.001033 -0.369583
vn 0.929197 -0.001033 -0.369583
vn 0.929197 -0.001033 -0.369583
vn 0.937259 0.114140 0.329420
vn 0.937259 0.114140 0.329420
vn 0.937259 0.114140 0.329420
vn 0.937259 0.114140 0.329420
s off
f 33/51/1 34/52/2 57/78/3 58/80/4
f 34/52/5 35/53/6 62/84/7 57/78/8
f 35/53/9 36/54/10 61/83/11 62/84/12
f 36/54/13 37/55/14 60/82/15 61/83/16
f 37/55/17 38/56/18 59/81/19 60/82/20
f 38/56/21 33/50/22 58/79/23 59/81/24
f 2/2/25 1/1/26 13/27/27
f 3/3/28 2/2/29 13/27/30
f 4/4/31 3/3/32 13/27/33
f 5/5/34 4/4/35 13/27/36
f 6/6/37 5/5/38 13/27/39
f 1/1/40 6/6/41 13/27/42
f 7/25/43 8/24/44 14/28/45
f 8/24/46 9/23/47 14/28/48
f 9/23/49 10/22/50 14/28/51
f 10/22/52 11/21/53 14/28/54
f 11/21/55 12/26/56 14/28/57
f 12/26/58 7/25/59 14/28/60
f 54/75/61 55/76/62 30/46/63 31/48/64
f 55/76/65 56/77/66 29/45/67 30/46/68
f 56/77/69 51/71/70 28/44/71 29/45/72
f 51/71/73 52/72/74 27/43/75 28/44/76
f 52/72/77 53/73/78 32/49/79 27/43/80
f 53/73/81 54/74/82 31/47/83 32/49/84
f 16/111/85 15/112/86 71/113/87 72/114/88
f 17/115/89 16/111/90 72/114/91 73/116/92
f 18/117/93 17/115/94 73/116/95 74/118/96
f 19/119/97 18/117/98 74/118/99 69/120/100
f 20/121/101 19/119/102 69/120/103 70/122/104
f 15/112/105 20/121/106 70/122/107 71/113/108
f 66/123/109 67/124/110 22/125/111 21/126/112
f 67/124/113 68/127/114 23/128/115 22/125/116
f 68/127/117 63/129/118 24/130/119 23/128/120
f 63/129/121 64/131/122 25/132/123 24/130/124
f 64/131/125 65/133/126 26/134/127 25/132/128
f 65/133/129 66/123/130 21/126/131 26/134/132
f 28/44/133 27/43/134 42/61/135 43/62/136
f 29/45/137 28/44/138 43/62/139 44/63/140
f 30/46/141 29/45/142 44/63/143 39/57/144
f 31/48/145 30/46/146 39/57/147 40/59/148
f 32/49/149 31/47/150 40/58/151 41/60/152
f 27/43/153 32/49/154 41/60/155 42/61/156
f 48/68/157 49/69/158 34/52/159 33/51/160
f 49/69/161 50/70/162 35/53/163 34/52/164
f 50/70/165 45/64/166 36/54/167 35/53/168
f 45/64/169 46/65/170 37/55/171 36/54/172
f 46/65/173 47/66/174 38/56/175 37/55/176
f 47/66/177 48/67/178 33/50/179 38/56/180
f 46/85/181 45/86/182 43/87/183 42/88/184
f 47/89/185 46/85/186 42/88/187 41/90/188
f 48/91/189 47/89/190 41/90/191 40/92/192
f 49/93/193 48/91/194 40/92/195 39/94/196
f 50/95/197 49/93/198 39/94/199 44/96/200
f 45/86/201 50/95/202 44/96/203 43/87/204
f 24/40/205 25/41/206 52/72/207 51/71/208
f 25/41/209 26/42/210 53/73/211 52/72/212
f 26/42/213 21/36/214 54/74/215 53/73/216
f 21/37/217 22/38/218 55/76/219 54/75/220
f 22/38/221 23/39/222 56/77/223 55/76/224
f 23/39/225 24/40/226 51/71/227 56/77/228
f 58/80/229 57/78/230 19/33/231 20/35/232
f 59/81/233 58/79/234 20/34/235 15/29/236
f 60/82/237 59/81/238 15/29/239 16/30/240
f 61/83/241 60/82/242 16/30/243 17/31/244
f 62/84/245 61/83/246 17/31/247 18/32/248
f 57/78/249 62/84/250 18/32/251 19/33/252
f 4/10/253 5/11/254 64/98/255 63/97/256
f 5/11/257 6/12/258 65/99/259 64/98/260
f 6/12/261 1/13/262 66/100/263 65/99/264
f 1/7/265 2/8/266 67/102/267 66/101/268
f 2/8/269 3/9/270 68/103/271 67/102/272
f 3/9/273 4/10/274 63/97/275 68/103/276
f 70/106/277 69/104/278 8/15/279 7/14/280
f 71/107/281 70/105/282 7/20/283 12/19/284
f 72/108/285 71/107/286 12/19/287 11/18/288
f 73/109/289 72/108/290 11/18/291 10/17/292
f 74/110/293 73/109/294 10/17/295 9/16/296
f 69/104/297 74/110/298 9/16/299 8/15/300
