# This file uses meters as units for non-parametric coordinates.

v 0.000000 0.000000 0.000000
v 8.068904 0.000000 -1.378219
v 7.936520 9.654530 -1.460892
v 8.084556 -12.926240 -1.945078
v 13.261367 -12.632905 -3.150921
v 13.218849 0.000000 -2.257862
v 12.981464 9.416927 -2.324845
v 13.261367 -12.632905 -5.583343
v 13.218849 -0.042545 -7.247840
v 8.068904 -0.042545 -6.445727
v 8.084556 -12.926240 -4.483779
v 12.981464 9.416927 -4.830074
v 7.936520 9.654530 -4.042268
v 0.000000 -38.426411 0.000000
v 21.668175 -21.565361 -5.213184
v 26.002970 0.000000 -4.441469
v 24.294258 25.176823 -4.471896
v 0.000000 27.565092 0.000000
v -8.068904 0.000000 -1.378219
v -7.936520 9.654530 -1.460892
v -8.084556 -12.926240 -1.945078
v -13.261367 -12.632905 -3.150921
v -13.218849 0.000000 -2.257862
v -12.981464 9.416927 -2.324845
v -13.261367 -12.632905 -5.583343
v -13.218849 -0.042545 -7.247840
v -8.068904 -0.042545 -6.445727
v -8.084556 -12.926240 -4.483779
v -12.981464 9.416927 -4.830074
v -7.936520 9.654530 -4.042268
v -21.668175 -21.565361 -5.213184
v -26.002970 0.000000 -4.441469
v -24.294258 25.176823 -4.471896
v 0.000000 -0.011649 7.237563
v 0.000000 16.498529 7.237563
v 15.259747 -0.011649 4.718073
v 0.000000 -25.521170 7.237563
v 4.151741 15.919147 6.498842
v 4.198319 4.217461 6.490555
v 14.971938 3.917408 4.715209
v 14.819679 -3.568256 4.540911
v 4.310738 -3.511132 6.280024
v 4.499949 -23.728790 6.191037
v 26.900560 -0.011649 2.796093
v 22.416130 -21.539354 2.024379
v 25.132862 25.121214 2.765666
v 0.000000 27.505316 7.237563
v 0.000000 -38.370968 7.237563
v -15.259747 -0.011649 4.718073
v -4.151741 15.919147 6.498842
v -4.198319 4.217461 6.490555
v -14.971938 3.917408 4.715209
v -14.819679 -3.568256 4.540911
v -4.310738 -3.511132 6.280024
v -4.499949 -23.728790 6.191037
v -26.900560 -0.011649 2.796093
v -22.416130 -21.539354 2.024379
v -25.132862 25.121214 2.765666
v 0.000000 32.839417 0.000000
v 0.000000 32.770428 7.237563
v 30.700533 29.655254 1.329412
v 29.676151 29.718792 -5.908150
v 0.000000 -46.113983 7.237563
v 0.000000 -46.182964 0.000000
v 25.739021 -24.015337 -5.782516
v 26.627497 -23.985056 1.455046
v 30.862680 -0.331665 -5.674436
v 31.928017 -0.342735 1.563126
v -25.739021 -24.015337 -5.782516
v -26.627497 -23.985056 1.455046
v -31.928017 -0.342735 1.563126
v -30.862680 -0.331665 -5.674436
v -30.700533 29.655254 1.329412
v -29.676151 29.718792 -5.908150
vt 0.182731 0.062314
vt 0.182731 0.062313
vt 0.182731 0.062313
vt 0.182731 0.062314
vt 0.182731 0.062314
vt 0.182731 0.062314
vt 0.064536 0.150693
vt 0.064536 0.150693
vt 0.064536 0.150693
vt 0.064536 0.150693
vt 0.064536 0.150693
vt 0.064536 0.150693
vt 0.064536 0.150693
vt 0.064536 0.150693
vt 0.064536 0.150693
vt 0.064536 0.150693
vt 0.064536 0.150693
vt 0.064536 0.150693
vt 0.182731 0.062314
vt 0.182731 0.062313
vt 0.182731 0.062313
vt 0.182731 0.062314
vt 0.182731 0.062314
vt 0.182731 0.062314
vt 0.182731 0.062314
vt 0.182731 0.062313
vt 0.182731 0.062313
vt 0.182731 0.062314
vt 0.182731 0.062314
vt 0.182731 0.062314
vt 0.064536 0.150693
vt 0.064536 0.150693
vt 0.064536 0.150693
vt 0.064536 0.150693
vt 0.064536 0.150693
vt 0.064536 0.150693
vt 0.064536 0.150693
vt 0.064536 0.150693
vt 0.064536 0.150693
vt 0.064536 0.150693
vt 0.064536 0.150693
vt 0.064536 0.150693
vt 0.182731 0.062314
vt 0.182731 0.062313
vt 0.182731 0.062313
vt 0.182731 0.062314
vt 0.182731 0.062314
vt 0.182731 0.062314
vt 0.181689 0.021761
vt 0.181689 0.021761
vt 0.181689 0.021761
vt 0.181689 0.021761
vt 0.181689 0.021761
vt 0.181689 0.021761
vt 0.181689 0.021761
vt 0.198769 0.695499
vt 0.198769 0.695499
vt 0.198769 0.695499
vt 0.238916 0.286904
vt 0.238916 0.286904
vt 0.238916 0.286904
vt 0.238916 0.286904
vt 0.198769 0.695499
vt 0.198769 0.695499
vt 0.198769 0.695499
vt 0.198769 0.695499
vt 0.198769 0.695499
vt 0.181689 0.021761
vt 0.181689 0.021761
vt 0.181689 0.021761
vt 0.238916 0.286904
vt 0.238916 0.286904
vt 0.238916 0.286904
vt 0.238916 0.286904
vt 0.181689 0.021761
vt 0.181689 0.021761
vt 0.181689 0.021761
vt 0.181689 0.021761
vt 0.238916 0.286904
vt 0.238916 0.286904
vt 0.238916 0.286904
vt 0.199455 0.694770
vt 0.199455 0.694770
vt 0.199455 0.694770
vt 0.199455 0.694770
vt 0.238916 0.286904
vt 0.238916 0.286904
vt 0.238916 0.286904
vt 0.238916 0.286904
vt 0.238916 0.286904
vt 0.181689 0.021761
vt 0.181689 0.021761
vt 0.181689 0.021761
vt 0.199455 0.694771
vt 0.199455 0.694771
vt 0.199455 0.694770
vt 0.199455 0.694770
vt 0.181723 0.067705
vt 0.181723 0.067705
vt 0.181723 0.067705
vt 0.181723 0.067705
vt 0.181723 0.067705
vt 0.181723 0.067705
vt 0.181723 0.067705
vt 0.181723 0.067705
vt 0.181723 0.067705
vt 0.181723 0.067705
vt 0.181723 0.067705
vt 0.181723 0.067705
vt 0.181723 0.067705
vt 0.181723 0.067705
vt 0.181723 0.067705
vt 0.181723 0.067705
vt 0.181723 0.067705
vt 0.181723 0.067705
vt 0.181723 0.067705
vt 0.181723 0.067705
vt 0.181723 0.067705
vt 0.181723 0.067705
vt 0.181723 0.067705
vt 0.181723 0.067705
vt 0.181723 0.067705
vt 0.181723 0.067705
vt 0.181723 0.067705
vt 0.181723 0.067705
vt 0.181723 0.067705
vt 0.181723 0.067705
vt 0.181723 0.067705
vt 0.181723 0.067705
vt 0.181723 0.067705
vt 0.181723 0.067705
vt 0.181723 0.067705
vt 0.181723 0.067705
vt 0.181723 0.067705
vt 0.181723 0.067705
vt 0.181723 0.067705
vt 0.181723 0.067705
vt 0.181723 0.067705
vt 0.181723 0.067705
vt 0.181723 0.067705
vt 0.181723 0.067705
vt 0.181689 0.021761
vt 0.181689 0.021761
vt 0.181689 0.021761
vt 0.181689 0.021761
vt 0.181689 0.021761
vt 0.181689 0.021761
vt 0.181689 0.021761
vt 0.181689 0.021761
vt 0.181689 0.021761
vt 0.181689 0.021761
vt 0.181689 0.021761
vt 0.181689 0.021761
vt 0.181689 0.021761
vt 0.181689 0.021761
vt 0.181689 0.021761
vn -0.175519 -0.139142 -0.974594
vn -0.175519 -0.139142 -0.974593
vn -0.164871 0.025330 -0.985990
vn -0.165218 0.020889 -0.986036
vn -0.144190 0.238895 -0.960280
vn -0.165218 0.020889 -0.986036
vn -0.164871 0.025330 -0.985990
vn -0.144190 0.238895 -0.960280
vn -0.201277 0.005140 -0.979521
vn -0.201149 0.005097 -0.979547
vn -0.178842 -0.002230 -0.983875
vn -0.178493 -0.002412 -0.983938
vn -0.210684 0.024813 -0.977239
vn -0.228340 0.004150 -0.973573
vn -0.224494 0.006521 -0.974454
vn -0.203506 0.032295 -0.978541
vn -0.168720 0.024153 -0.985368
vn -0.210684 0.024813 -0.977239
vn -0.203506 0.032295 -0.978541
vn -0.168704 0.025372 -0.985340
vn -0.175424 -0.005843 -0.984476
vn -0.168720 0.024153 -0.985368
vn -0.168704 0.025372 -0.985340
vn -0.174104 -0.007185 -0.984701
vn -0.175424 -0.005843 -0.984476
vn -0.174104 -0.007185 -0.984701
vn -0.178493 -0.002412 -0.983938
vn -0.178842 -0.002230 -0.983875
vn -0.228340 0.004150 -0.973573
vn -0.201149 0.005097 -0.979547
vn -0.201277 0.005140 -0.979521
vn -0.224494 0.006521 -0.974454
vn 0.999994 0.003371 -0.000019
vn 0.999994 0.003371 -0.000019
vn 0.999994 0.003371 -0.000019
vn 0.999994 0.003371 -0.000019
vn -0.999999 -0.001212 0.000007
vn -0.999999 -0.001212 0.000007
vn -0.999999 -0.001212 0.000007
vn -0.999999 -0.001212 0.000007
vn 0.056572 -0.998399 0.000000
vn 0.056572 -0.998398 0.000000
vn 0.056572 -0.998398 0.000000
vn 0.056572 -0.998398 0.000000
vn 0.047045 0.998893 0.000000
vn 0.047045 0.998893 0.000000
vn 0.047045 0.998893 0.000000
vn 0.047045 0.998893 0.000000
vn -0.999906 -0.013690 0.000076
vn -0.999906 -0.013690 0.000076
vn -0.999906 -0.013690 0.000076
vn -0.999906 -0.013690 0.000076
vn 0.999683 0.025161 -0.000143
vn 0.999683 0.025161 -0.000143
vn 0.999683 0.025161 -0.000143
vn 0.999683 0.025161 -0.000143
vn 0.175519 -0.139142 -0.974594
vn 0.165218 0.020889 -0.986036
vn 0.164871 0.025330 -0.985990
vn 0.175519 -0.139142 -0.974593
vn 0.144190 0.238895 -0.960280
vn 0.144190 0.238895 -0.960280
vn 0.164871 0.025330 -0.985990
vn 0.165218 0.020889 -0.986036
vn 0.201277 0.005140 -0.979521
vn 0.178493 -0.002412 -0.983938
vn 0.178842 -0.002230 -0.983875
vn 0.201149 0.005097 -0.979547
vn 0.210684 0.024813 -0.977239
vn 0.203506 0.032295 -0.978541
vn 0.224494 0.006521 -0.974454
vn 0.228340 0.004150 -0.973573
vn 0.168720 0.024153 -0.985368
vn 0.168704 0.025372 -0.985340
vn 0.203506 0.032295 -0.978541
vn 0.210684 0.024813 -0.977239
vn 0.175424 -0.005843 -0.984476
vn 0.174104 -0.007185 -0.984701
vn 0.168704 0.025372 -0.985340
vn 0.168720 0.024153 -0.985368
vn 0.175424 -0.005843 -0.984476
vn 0.178842 -0.002230 -0.983875
vn 0.178493 -0.002412 -0.983938
vn 0.174104 -0.007185 -0.984701
vn 0.228340 0.004150 -0.973573
vn 0.224494 0.006521 -0.974454
vn 0.201277 0.005140 -0.979521
vn 0.201149 0.005097 -0.979547
vn -0.999994 0.003371 -0.000019
vn -0.999994 0.003371 -0.000019
vn -0.999994 0.003371 -0.000019
vn -0.999994 0.003371 -0.000019
vn 0.999999 -0.001212 0.000007
vn 0.999999 -0.001212 0.000007
vn 0.999999 -0.001212 0.000007
vn 0.999999 -0.001212 0.000007
vn -0.056572 -0.998399 0.000000
vn -0.056572 -0.998398 0.000000
vn -0.056572 -0.998398 0.000000
vn -0.056572 -0.998398 0.000000
vn -0.047045 0.998893 0.000000
vn -0.047045 0.998893 0.000000
vn -0.047045 0.998893 0.000000
vn -0.047045 0.998893 0.000000
vn 0.999906 -0.013690 0.000076
vn 0.999906 -0.013690 0.000076
vn 0.999906 -0.013690 0.000076
vn 0.999906 -0.013690 0.000076
vn -0.999683 0.025161 -0.000143
vn -0.999683 0.025161 -0.000143
vn -0.999683 0.025161 -0.000143
vn -0.999683 0.025161 -0.000143
vn 0.191261 -0.007976 0.981507
vn 0.225115 -0.000281 0.974332
vn 0.222520 -0.007820 0.974897
vn 0.189626 -0.016731 0.981714
vn 0.175179 0.000000 0.984537
vn 0.191261 -0.007976 0.981507
vn 0.167497 0.004294 0.985863
vn 0.173465 0.002291 0.984837
vn 0.170000 0.007311 0.985417
vn 0.173465 0.002291 0.984837
vn 0.165190 0.010689 0.986204
vn 0.214634 -0.037458 0.975976
vn 0.162858 -0.023037 0.986381
vn 0.162852 -0.025146 0.986330
vn 0.177314 -0.051930 0.982783
vn 0.162858 -0.023037 0.986381
vn 0.170000 0.007311 0.985417
vn 0.165190 0.010689 0.986204
vn 0.162852 -0.025146 0.986330
vn 0.170000 0.007311 0.985417
vn 0.175179 0.000000 0.984537
vn 0.175179 0.000000 0.984537
vn 0.173465 0.002291 0.984837
vn 0.173465 0.002291 0.984837
vn 0.167497 0.004294 0.985863
vn 0.165190 0.010689 0.986204
vn 0.191261 -0.007976 0.981507
vn 0.162852 -0.025146 0.986330
vn 0.165190 0.010689 0.986204
vn 0.167497 0.004294 0.985863
vn 0.162852 -0.025146 0.986330
vn 0.191261 -0.007976 0.981507
vn 0.189626 -0.016731 0.981714
vn 0.177314 -0.051930 0.982783
vn 0.214634 -0.037458 0.975976
vn 0.222520 -0.007820 0.974897
vn 0.225115 -0.000281 0.974332
vn 0.226519 0.000000 0.974007
vn 0.214634 -0.037458 0.975976
vn 0.177314 -0.051930 0.982783
vn 0.222520 -0.007820 0.974897
vn 0.177314 -0.051930 0.982783
vn 0.189626 -0.016731 0.981714
vn 0.222520 -0.007820 0.974897
vn -0.191261 -0.007976 0.981507
vn -0.189626 -0.016731 0.981714
vn -0.222520 -0.007820 0.974897
vn -0.225116 -0.000281 0.974332
vn -0.175179 0.000000 0.984537
vn -0.173465 0.002291 0.984837
vn -0.167497 0.004294 0.985863
vn -0.191261 -0.007976 0.981507
vn -0.170000 0.007311 0.985417
vn -0.165190 0.010689 0.986204
vn -0.173465 0.002291 0.984837
vn -0.214634 -0.037458 0.975976
vn -0.177314 -0.051930 0.982783
vn -0.162852 -0.025146 0.986330
vn -0.162858 -0.023037 0.986381
vn -0.162858 -0.023037 0.986381
vn -0.162852 -0.025146 0.986330
vn -0.165190 0.010689 0.986204
vn -0.170000 0.007311 0.985417
vn -0.170000 0.007311 0.985417
vn -0.173465 0.002291 0.984837
vn -0.175179 0.000000 0.984537
vn -0.175179 0.000000 0.984537
vn -0.173465 0.002291 0.984837
vn -0.165190 0.010689 0.986204
vn -0.167497 0.004294 0.985863
vn -0.191261 -0.007976 0.981507
vn -0.167497 0.004294 0.985863
vn -0.165190 0.010689 0.986204
vn -0.162852 -0.025146 0.986330
vn -0.162852 -0.025146 0.986330
vn -0.177314 -0.051930 0.982783
vn -0.189626 -0.016731 0.981714
vn -0.191261 -0.007976 0.981507
vn -0.214634 -0.037458 0.975976
vn -0.226519 0.000000 0.974007
vn -0.225116 -0.000281 0.974332
vn -0.222520 -0.007820 0.974897
vn -0.214634 -0.037458 0.975976
vn -0.222520 -0.007820 0.974897
vn -0.177314 -0.051930 0.982783
vn -0.177314 -0.051930 0.982783
vn -0.222520 -0.007820 0.974897
vn -0.189626 -0.016731 0.981714
vn 0.000000 0.999998 0.001821
vn 0.000000 0.999998 0.001821
vn 0.103086 0.994671 0.001811
vn 0.103086 0.994671 0.001811
vn 0.000000 -0.999013 -0.044416
vn 0.000000 -0.999013 -0.044416
vn 0.641052 -0.766740 -0.034089
vn 0.641052 -0.766740 -0.034089
vn 0.968374 -0.212701 -0.130426
vn 0.968373 -0.212701 -0.130426
vn 0.987575 -0.074770 -0.138220
vn 0.987680 -0.073236 -0.138291
vn -0.968373 -0.212701 -0.130426
vn -0.968374 -0.212701 -0.130426
vn -0.987680 -0.073236 -0.138291
vn -0.987575 -0.074770 -0.138220
vn -0.103086 0.994671 0.001811
vn 0.000000 0.999998 0.001821
vn 0.000000 0.999998 0.001821
vn -0.103086 0.994671 0.001811
vn -0.641052 -0.766740 -0.034089
vn 0.000000 -0.999013 -0.044416
vn 0.000000 -0.999013 -0.044416
vn -0.641052 -0.766740 -0.034089
vn 0.987680 -0.073236 -0.138291
vn 0.987575 -0.074770 -0.138220
vn 0.989028 0.038650 -0.142583
vn 0.989028 0.038650 -0.142583
vn -0.987575 -0.074770 -0.138220
vn -0.987680 -0.073236 -0.138291
vn -0.989028 0.038650 -0.142583
vn -0.989028 0.038650 -0.142583
vn -0.000000 0.038740 0.999249
vn 0.211453 0.028071 0.976985
vn 0.215198 0.026578 0.976209
vn -0.000000 0.038740 0.999249
vn -0.218635 -0.027891 -0.975408
vn 0.000000 -0.038672 -0.999252
vn 0.000000 -0.038672 -0.999252
vn -0.221681 -0.026714 -0.974753
vn 0.000000 -0.027639 -0.999618
vn -0.195276 0.006133 -0.980729
vn -0.195141 0.006604 -0.980753
vn 0.000000 -0.027639 -0.999618
vn 0.189152 -0.005593 0.981932
vn 0.000000 0.027687 0.999617
vn 0.000000 0.027687 0.999617
vn 0.188615 -0.007527 0.982022
vn -0.195276 0.006133 -0.980729
vn -0.218293 0.013856 -0.975785
vn -0.218565 0.013543 -0.975728
vn -0.195141 0.006604 -0.980753
vn 0.211255 -0.014002 0.977331
vn 0.189152 -0.005593 0.981932
vn 0.188615 -0.007527 0.982022
vn 0.211718 -0.013454 0.977238
vn -0.189152 -0.005593 0.981932
vn -0.211255 -0.014002 0.977331
vn -0.211718 -0.013454 0.977238
vn -0.188615 -0.007527 0.982022
vn 0.218293 0.013856 -0.975785
vn 0.195276 0.006133 -0.980729
vn 0.195141 0.006604 -0.980753
vn 0.218565 0.013543 -0.975728
vn -0.211453 0.028071 0.976985
vn -0.000000 0.038740 0.999249
vn -0.000000 0.038740 0.999249
vn -0.215198 0.026578 0.976209
vn 0.000000 -0.038672 -0.999252
vn 0.218635 -0.027891 -0.975408
vn 0.221681 -0.026714 -0.974753
vn 0.000000 -0.038672 -0.999252
vn 0.195276 0.006133 -0.980729
vn 0.000000 -0.027639 -0.999618
vn 0.000000 -0.027639 -0.999618
vn 0.195141 0.006604 -0.980753
vn 0.000000 0.027687 0.999617
vn -0.189152 -0.005593 0.981932
vn -0.188615 -0.007527 0.982022
vn 0.000000 0.027687 0.999617
vn -0.218293 0.013856 -0.975785
vn -0.218635 -0.027891 -0.975408
vn -0.221681 -0.026714 -0.974753
vn -0.218565 0.013543 -0.975728
vn 0.211453 0.028071 0.976985
vn 0.211255 -0.014002 0.977331
vn 0.211718 -0.013454 0.977238
vn 0.215198 0.026578 0.976209
vn -0.211255 -0.014002 0.977331
vn -0.211453 0.028071 0.976985
vn -0.215198 0.026578 0.976209
vn -0.211718 -0.013454 0.977238
vn 0.218635 -0.027891 -0.975408
vn 0.218293 0.013856 -0.975785
vn 0.218565 0.013543 -0.975728
vn 0.221681 -0.026714 -0.974753
s off
f 8/1/1 11/4/2 10/3/3 9/2/4
f 12/5/5 9/2/6 10/3/7 13/6/8
f 2/7/9 1/10/10 18/9/11 3/8/12
f 15/11/13 14/14/14 4/13/15 5/12/16
f 16/15/17 15/11/18 5/12/19 6/16/20
f 17/17/21 16/15/22 6/16/23 7/18/24
f 17/17/25 7/18/26 3/8/27 18/9/28
f 14/14/29 1/10/30 2/7/31 4/13/32
f 5/19/33 8/1/34 9/2/35 6/20/36
f 2/21/37 10/3/38 11/4/39 4/22/40
f 4/22/41 11/4/42 8/1/43 5/19/44
f 7/23/45 12/5/46 13/6/47 3/24/48
f 3/24/49 13/6/50 10/3/51 2/21/52
f 6/20/53 9/2/54 12/5/55 7/23/56
f 25/25/57 26/26/58 27/27/59 28/28/60
f 29/29/61 30/30/62 27/27/63 26/26/64
f 19/31/65 20/32/66 18/33/67 1/34/68
f 31/35/69 22/36/70 21/37/71 14/38/72
f 32/39/73 23/40/74 22/36/75 31/35/76
f 33/41/77 24/42/78 23/40/79 32/39/80
f 33/41/81 18/33/82 20/32/83 24/42/84
f 14/38/85 21/37/86 19/31/87 1/34/88
f 22/43/89 23/44/90 26/26/91 25/25/92
f 19/45/93 21/46/94 28/28/95 27/27/96
f 21/46/97 22/43/98 25/25/99 28/28/100
f 24/47/101 20/48/102 30/30/103 29/29/104
f 20/48/105 19/45/106 27/27/107 30/30/108
f 23/44/109 24/47/110 29/29/111 26/26/112
f 34/147/113 37/151/114 43/51/115 42/154/116
f 35/53/117 34/144/118 39/54/119 38/55/120
f 46/56/121 38/57/122 40/58/123
f 45/59/124 44/60/125 36/61/126 41/62/127
f 44/63/128 46/56/129 40/58/130 36/64/131
f 46/56/132 47/65/133 35/66/134 38/57/135
f 38/57/136 39/67/137 40/58/138
f 34/145/139 36/156/140 40/69/141 39/155/142
f 36/68/143 34/146/144 42/52/145 41/70/146
f 45/59/147 43/71/148 37/72/149 48/73/150
f 45/59/151 41/62/152 43/71/153
f 41/62/154 42/74/155 43/71/156
f 34/148/157 54/75/158 55/76/159 37/50/160
f 35/153/161 50/77/162 51/150/163 34/143/164
f 58/79/165 52/80/166 50/81/167
f 57/82/168 53/83/169 49/84/170 56/85/171
f 56/86/172 49/87/173 52/80/174 58/79/175
f 58/79/176 50/81/177 35/88/178 47/89/179
f 50/81/180 52/80/181 51/90/182
f 34/142/183 51/78/184 52/91/185 49/92/186
f 49/152/187 53/93/188 54/149/189 34/49/190
f 57/82/191 48/94/192 37/95/193 55/96/194
f 57/82/195 55/96/196 53/83/197
f 53/83/198 55/96/199 54/97/200
f 59/98/201 60/99/202 61/100/203 62/101/204
f 63/102/205 64/103/206 65/104/207 66/105/208
f 66/106/209 65/107/210 67/108/211 68/109/212
f 69/110/213 70/111/214 71/112/215 72/113/216
f 73/114/217 60/99/218 59/98/219 74/115/220
f 69/116/221 64/103/222 63/102/223 70/117/224
f 68/109/225 67/108/226 62/118/227 61/100/228
f 72/113/229 71/112/230 73/114/231 74/119/232
f 47/120/233 46/121/234 61/100/235 60/99/236
f 17/122/237 18/123/238 59/98/239 62/101/240
f 14/124/241 15/125/242 65/104/243 64/103/244
f 45/126/245 48/127/246 63/102/247 66/105/248
f 15/128/249 16/129/250 67/108/251 65/107/252
f 44/130/253 45/131/254 66/106/255 68/109/256
f 57/132/257 56/133/258 71/112/259 70/111/260
f 32/134/261 31/135/262 69/110/263 72/113/264
f 58/136/265 47/120/266 60/99/267 73/114/268
f 18/123/269 33/137/270 74/115/271 59/98/272
f 31/138/273 14/124/274 64/103/275 69/116/276
f 48/127/277 57/139/278 70/117/279 63/102/280
f 16/129/281 17/140/282 62/118/283 67/108/284
f 46/121/285 44/130/286 68/109/287 61/100/288
f 56/133/289 58/136/290 73/114/291 71/112/292
f 33/141/293 32/134/294 72/113/295 74/119/296
